<?xml version="1.0" encoding="iso-8859-1"?>
<!-- Generator: Adobe Illustrator 18.1.1, SVG Export Plug-In . SVG Version: 6.00 Build 0)  -->
<svg version="1.1" id="Capa_1" xmlns="http://www.w3.org/2000/svg" xmlns:xlink="http://www.w3.org/1999/xlink" x="0px" y="0px"
	 viewBox="0 0 257.998 257.998" style="enable-background:new 0 0 257.998 257.998;" xml:space="preserve">
<g>
	<g>
		<path style="fill:#030104;" d="M256.877,136.994c-0.833-0.002-1.644,0.011-2.441,0.033
			C255.39,137.304,256.227,137.315,256.877,136.994z"/>
		<path style="fill:#030104;" d="M257.998,102.884C220.504,75.76,234.733,53.737,244.492,47.9
			c-69.049,21.34-44.031,91.709-54.637,98.055c-10.07,6.289-24.284-4.516-32.627-14.358c7.016,12.413-4.969,19.372-19.227,5.003
			c8.115,18.777,18.709,31.629-12.057,22.55C92.088,149.162,32.121,122.024,0,148.221c23.218,0.176,53.795,18.922,58.014,37.639
			c13.457-10.024,43.668,6.605,48.36,24.238c2.237-18.447,35.13-20.203,55.669-1.559c-14.557-31.373,29.551-23.052,44.193-2.697
			c-23.234-42.643,10.338-41.6,32.151-30.688c-14.633-27.28-6.381-37.503,16.046-38.127
			C244.411,134.125,221.133,101.308,257.998,102.884z M152.76,154.451c-0.943,0-1.708-0.763-1.708-1.708
			c0-0.943,0.765-1.708,1.708-1.708s1.708,0.765,1.708,1.708C154.468,153.688,153.703,154.451,152.76,154.451z M163.262,151.294
			c-0.944,0-1.709-0.765-1.709-1.708s0.765-1.707,1.709-1.707c0.943,0,1.707,0.764,1.707,1.707S164.205,151.294,163.262,151.294z"/>
	</g>
</g>
<g>
</g>
<g>
</g>
<g>
</g>
<g>
</g>
<g>
</g>
<g>
</g>
<g>
</g>
<g>
</g>
<g>
</g>
<g>
</g>
<g>
</g>
<g>
</g>
<g>
</g>
<g>
</g>
<g>
</g>
</svg>
