<?xml version="1.0" encoding="iso-8859-1"?>
<!-- Generator: Adobe Illustrator 19.0.0, SVG Export Plug-In . SVG Version: 6.00 Build 0)  -->
<svg version="1.1" id="Layer_1" xmlns="http://www.w3.org/2000/svg" xmlns:xlink="http://www.w3.org/1999/xlink" x="0px" y="0px"
	 viewBox="0 0 512 512" style="enable-background:new 0 0 512 512;" xml:space="preserve">
<path d="M310.015,430.842H201.753c-6.808,0-12.336-5.52-12.336-12.336c0-6.816,5.52-12.336,12.336-12.336l0,0h108.262
	c6.808,0,12.336,5.52,12.336,12.336C322.351,425.322,316.823,430.842,310.015,430.842z"/>
<path d="M310.015,466.225H201.753c-6.808,0-12.336-5.52-12.336-12.336c0-6.816,5.52-12.336,12.336-12.336l0,0h108.262
	c6.808,0,12.336,5.52,12.336,12.336C322.351,460.705,316.823,466.225,310.015,466.225z"/>
<path style="fill:#E21B1B;" d="M196.073,481.081C204.377,499.032,228.001,512,255.881,512c27.88,0,51.503-12.968,59.808-30.919
	L196.073,481.081L196.073,481.081z"/>
<ellipse style="fill:#CCCCCC;" cx="255.777" cy="102.311" rx="0.024" ry="0.024"/>
<path style="fill:#E21B1B;" d="M255.904,102.319L255.904,102.319c-105.799,0.088-158.902,107.726-110.303,180.573
	c46.175,69.151,42.4,108.31,42.4,108.31h135.806c0,0-3.815-39.199,42.343-108.342C414.766,210.045,361.663,102.407,255.904,102.319z
	"/>
<g>
	<ellipse style="fill:#CCCCCC;" cx="255.897" cy="102.351" rx="0.056" ry="0.056"/>
	<path style="fill:#CCCCCC;" d="M256.001,82.214c-6.808,0-12.328-5.52-12.328-12.328l0,0V12.335c0-6.807,5.52-12.335,12.336-12.335
		c6.808,0,12.336,5.52,12.336,12.336v57.543c0.008,6.808-5.512,12.328-12.32,12.336C256.008,82.214,256.008,82.214,256.001,82.214z"
		/>
	<path style="fill:#CCCCCC;" d="M91.587,271.284H34.044c-6.808,0-12.336-5.52-12.336-12.336c0-6.808,5.52-12.336,12.336-12.336
		h57.543c6.808,0,12.336,5.52,12.336,12.336C103.923,265.764,98.395,271.284,91.587,271.284L91.587,271.284z"/>
	<path style="fill:#CCCCCC;" d="M477.956,271.284h-57.543c-6.808,0-12.336-5.52-12.336-12.336c0-6.808,5.52-12.336,12.336-12.336
		h57.543c6.808,0,12.336,5.52,12.336,12.336C490.285,265.764,484.765,271.284,477.956,271.284z"/>
	<path style="fill:#CCCCCC;" d="M122.306,137.606c-3.272,0-6.408-1.296-8.72-3.616L72.899,93.294c-4.816-4.816-4.816-12.624,0-17.44
		c4.816-4.816,12.624-4.816,17.44,0l40.687,40.687c4.816,4.816,4.816,12.616,0.008,17.432c-2.312,2.312-5.456,3.616-8.728,3.616
		C122.306,137.59,122.306,137.606,122.306,137.606z"/>
	<path style="fill:#CCCCCC;" d="M389.694,137.606c-6.808,0-12.328-5.512-12.336-12.32c0-3.272,1.296-6.416,3.616-8.728
		l40.687-40.687c4.816-4.816,12.624-4.816,17.44,0c4.816,4.816,4.816,12.624,0,17.44l-40.703,40.663
		C396.094,136.294,392.967,137.598,389.694,137.606z"/>
</g>
<g>
</g>
<g>
</g>
<g>
</g>
<g>
</g>
<g>
</g>
<g>
</g>
<g>
</g>
<g>
</g>
<g>
</g>
<g>
</g>
<g>
</g>
<g>
</g>
<g>
</g>
<g>
</g>
<g>
</g>
</svg>
