<?xml version="1.0" encoding="iso-8859-1"?>
<!-- Generator: Adobe Illustrator 19.0.0, SVG Export Plug-In . SVG Version: 6.00 Build 0)  -->
<svg version="1.1" id="Layer_1" xmlns="http://www.w3.org/2000/svg" xmlns:xlink="http://www.w3.org/1999/xlink" x="0px" y="0px"
	 viewBox="0 0 512.001 512.001" style="enable-background:new 0 0 512.001 512.001;" xml:space="preserve">
<path style="fill:#CC7400;" d="M512,249.219v97.782c0,0.752-0.01,1.505-0.021,2.257v0.063c-0.272,13.218-2.487,26.237-6.604,38.703
	l-0.261-0.084c-3.02,8.934-6.969,17.45-11.734,25.412l0.345,0.199l0.052,0.031c-11.463,19.425-27.815,35.704-47.292,47.073
	c-7.335,4.284-15.067,7.826-23.061,10.595c-0.502,0.167-1.003,0.345-1.505,0.512c-1.755,0.585-3.532,1.139-5.319,1.651
	c-0.69,0.199-1.39,0.397-2.09,0.585c-0.616,0.167-1.233,0.324-1.849,0.491c-0.784,0.199-1.567,0.397-2.361,0.575
	c-1.411,0.324-2.821,0.637-4.242,0.919c-2.038,0.408-4.086,0.773-6.134,1.087c-0.094,0.021-0.188,0.031-0.282,0.042
	c-1.4,0.209-2.8,0.397-4.2,0.564c-0.763,0.084-1.526,0.167-2.288,0.24c-0.721,0.073-1.442,0.136-2.163,0.199
	c-2.163,0.178-4.336,0.303-6.51,0.376h-0.073c-0.721,0.021-1.431,0.042-2.142,0.052c-0.731,0.01-1.463,0.021-2.194,0.021h-60.646
	c-0.418,0.324-0.836,0.648-1.264,0.961c-0.418,0.324-0.846,0.637-1.275,0.951c-0.951,0.679-1.902,1.358-2.873,2.006
	c-0.345,0.23-0.69,0.46-1.045,0.69c-0.899,0.606-1.818,1.181-2.748,1.755c-0.428,0.251-0.846,0.512-1.275,0.763
	c-0.7,0.428-1.411,0.836-2.132,1.233c-0.282,0.167-0.564,0.324-0.846,0.47c-0.47,0.261-0.951,0.512-1.421,0.773
	c-0.376,0.199-0.752,0.387-1.128,0.585c-1.546,0.794-3.114,1.546-4.692,2.257c-0.334,0.157-0.679,0.303-1.014,0.449l-0.209,0.878
	c-5.653,2.476-11.536,4.441-17.544,5.872l0.209-0.836c-3.939,0.951-7.941,1.672-11.975,2.142c-1.003,0.125-2.017,0.23-3.03,0.313
	c-0.512,0.052-1.014,0.094-1.526,0.125c-0.502,0.042-1.014,0.073-1.515,0.104c-0.648,0.042-1.296,0.073-1.944,0.104
	c-0.596,0.021-1.181,0.042-1.776,0.052c-0.805,0.021-1.599,0.031-2.403,0.031c-3.417,0-6.834-0.178-10.209-0.512
	c-0.491-0.052-0.972-0.104-1.452-0.157c-0.961-0.115-1.933-0.24-2.894-0.376c-2.884-0.397-5.736-0.93-8.568-1.578l0.199,0.826
	c-5.966-1.358-11.807-3.239-17.439-5.611l-0.209-0.878c-3.553-1.505-7.032-3.218-10.397-5.13c-0.961-0.543-1.923-1.108-2.863-1.672
	c-1.421-0.846-2.821-1.745-4.2-2.685c-0.46-0.313-0.92-0.627-1.369-0.94c-1.369-0.951-2.717-1.933-4.033-2.968h-60.635
	c-0.731,0-1.452-0.01-2.184-0.021c-0.731-0.01-1.452-0.031-2.184-0.052c-2.184-0.073-4.357-0.199-6.531-0.376
	c-0.721-0.063-1.442-0.125-2.163-0.199c-0.637-0.063-1.275-0.136-1.912-0.199c-0.084-0.01-0.167-0.021-0.251-0.031
	c-1.442-0.167-2.884-0.355-4.315-0.575c-1.432-0.209-2.863-0.449-4.284-0.711c-0.711-0.125-1.421-0.261-2.132-0.408
	c-0.115-0.01-0.219-0.042-0.324-0.063c-0.596-0.125-1.191-0.251-1.797-0.376c-0.7-0.157-1.411-0.313-2.111-0.481
	c-3.96-0.92-7.847-2.038-11.661-3.312c-0.502-0.167-1.003-0.345-1.505-0.512c-7.962-2.759-15.663-6.28-22.967-10.543
	c-19.456-11.337-35.798-27.564-47.271-46.937l0.042-0.031l0.345-0.209c-4.817-8.014-8.798-16.583-11.839-25.59l-0.261,0.084
	c-4.117-12.466-6.332-25.485-6.604-38.703v-0.063C0.01,348.505,0,347.753,0,347.001v-97.782c0-0.752,0.01-1.505,0.021-2.257
	c0-0.021,0.01-0.042,0-0.063v-0.366c0.01-0.439,0.021-0.878,0.042-1.317c0.031-1.108,0.084-2.226,0.136-3.333
	c0.031-0.554,0.073-1.108,0.104-1.661c0.042-0.554,0.084-1.108,0.125-1.661c0.073-1.034,0.167-2.069,0.282-3.093
	c0.021-0.157,0.031-0.324,0.052-0.481c0.052-0.449,0.104-0.909,0.157-1.358c0.313-2.717,0.711-5.413,1.212-8.098
	c0.104-0.533,0.199-1.066,0.303-1.599c0.199-1.066,0.418-2.132,0.658-3.187c0.951-4.357,2.132-8.662,3.532-12.915l0.031,0.01
	c2.968-8.976,6.875-17.533,11.619-25.537l-0.052-0.031c11.463-19.425,27.815-35.704,47.292-47.073
	c7.335-4.284,15.067-7.826,23.061-10.595c0.502-0.167,1.003-0.345,1.505-0.512c1.755-0.585,3.532-1.139,5.319-1.651
	c0.69-0.199,1.39-0.397,2.09-0.585c0.616-0.167,1.233-0.324,1.849-0.491c0.784-0.199,1.567-0.397,2.361-0.575
	c1.4-0.334,2.821-0.648,4.242-0.92c2.027-0.418,4.075-0.773,6.134-1.087c0.094-0.021,0.188-0.031,0.282-0.042
	c1.4-0.209,2.8-0.397,4.2-0.564c0.763-0.084,1.526-0.167,2.288-0.24c0.721-0.073,1.442-0.136,2.163-0.199
	c2.152-0.178,4.326-0.303,6.51-0.376h0.073c0.721-0.021,1.432-0.042,2.142-0.052c0.731-0.01,1.463-0.021,2.194-0.021h59.632
	c7.032-5.59,14.754-10.209,22.936-13.772l0.104-0.418l9.947-41.148l-27.146-50.197H313.49l-26.854,50.186l9.634,40.667l0.094,0.408
	c8.6,3.636,16.729,8.422,24.085,14.273h59.622c0.731,0,1.452,0.01,2.184,0.021c0.731,0.01,1.452,0.031,2.184,0.052
	c2.194,0.073,4.368,0.199,6.531,0.376c0.721,0.063,1.442,0.125,2.163,0.199c0.637,0.063,1.275,0.136,1.912,0.199
	c0.084,0.01,0.167,0.021,0.251,0.031c1.442,0.167,2.884,0.355,4.315,0.575c1.442,0.209,2.863,0.439,4.284,0.711
	c0.711,0.125,1.421,0.261,2.132,0.408c0.115,0.01,0.219,0.042,0.324,0.063c0.596,0.125,1.191,0.251,1.797,0.376
	c0.7,0.157,1.411,0.313,2.111,0.481c3.96,0.92,7.847,2.038,11.661,3.312c0.502,0.167,1.003,0.345,1.505,0.512
	c7.962,2.759,15.663,6.28,22.967,10.543c19.456,11.337,35.798,27.564,47.271,46.937l-0.042,0.031
	c4.786,8.067,8.735,16.677,11.724,25.725l0.031-0.01c1.4,4.253,2.581,8.558,3.532,12.915c0.23,1.055,0.449,2.121,0.658,3.187
	c0.104,0.533,0.199,1.066,0.303,1.599c0.502,2.685,0.899,5.381,1.212,8.098c0.052,0.449,0.104,0.909,0.157,1.358
	c0.021,0.157,0.031,0.324,0.052,0.481c0.104,1.024,0.199,2.058,0.282,3.093c0.042,0.554,0.084,1.108,0.125,1.661
	c0.031,0.554,0.073,1.108,0.104,1.661c0.063,1.108,0.115,2.226,0.136,3.333c0.021,0.439,0.031,0.878,0.042,1.317v0.366
	c-0.01,0.021,0,0.042,0,0.063C511.99,247.715,512,248.467,512,249.219z"/>
<path style="fill:#FFDA44;" d="M241.194,59.779l-17.502-32.35h63.634l-13.97,26.122H256v15.673h16.259l6.572,27.794l0.094,0.387
	c-7.481-1.703-15.182-2.581-22.925-2.581c-8.108,0-16.144,0.961-23.96,2.821l0.094-0.387L241.194,59.779z"/>
<path style="fill:#FF9811;" d="M337.753,462.107h-1.442c2.278-2.79,4.399-5.705,6.353-8.714c0.533-0.825,1.066-1.661,1.578-2.497
	c1.045-1.672,2.027-3.375,2.947-5.11c1.64-3.02,3.124-6.134,4.441-9.31c0.575-1.358,1.108-2.727,1.609-4.117
	c0.199-0.554,0.397-1.097,0.585-1.641c0.293-0.846,0.575-1.703,0.846-2.55c0.313-0.993,0.616-1.985,0.899-2.988
	c0.251-0.899,0.491-1.797,0.721-2.696c0.125-0.481,0.24-0.961,0.355-1.442c0.031-0.115,0.052-0.23,0.084-0.345
	c0.063-0.24,0.125-0.491,0.178-0.742c0.021-0.094,0.042-0.188,0.063-0.282l-15.297-3.427c-0.021,0.084-0.031,0.157-0.052,0.24
	c-0.115,0.512-0.24,1.034-0.366,1.546c-0.125,0.512-0.251,1.014-0.397,1.515c-0.042,0.167-0.084,0.324-0.125,0.481
	c-0.293,1.108-0.616,2.194-0.961,3.281c-0.178,0.585-0.376,1.17-0.575,1.745c-0.387,1.149-0.805,2.299-1.243,3.427
	c-0.209,0.575-0.439,1.139-0.679,1.703c-0.23,0.554-0.47,1.118-0.711,1.682c-0.481,1.118-0.993,2.215-1.526,3.312
	c-0.272,0.543-0.543,1.087-0.825,1.63c-0.272,0.543-0.554,1.087-0.846,1.62c-0.167,0.324-0.345,0.648-0.533,0.972
	c-1.003,1.797-2.069,3.574-3.197,5.298c-0.324,0.512-0.669,1.024-1.014,1.526c-2.424,3.563-5.12,6.949-8.067,10.136
	c-0.637,0.69-1.285,1.369-1.943,2.038c-0.167,0.178-0.334,0.334-0.502,0.502c-0.178,0.188-0.376,0.376-0.564,0.564
	c-0.679,0.669-1.379,1.337-2.09,1.985c-1.358,1.243-2.748,2.456-4.19,3.615c-0.512,0.418-1.034,0.826-1.567,1.233
	c-0.951,0.742-1.933,1.463-2.915,2.152c-2.038,1.442-4.127,2.79-6.28,4.044c-0.345,0.209-0.7,0.408-1.055,0.606
	c-2.905,1.651-5.904,3.135-8.976,4.441c-1.118,0.481-2.257,0.93-3.396,1.358c-1.16,0.439-2.33,0.846-3.511,1.233
	c-0.585,0.199-1.181,0.387-1.766,0.564c-3.814,1.17-7.711,2.079-11.661,2.727c-0.805,0.136-1.609,0.251-2.414,0.355
	c-3.866,0.533-7.784,0.794-11.724,0.794c-3.939,0-7.858-0.261-11.724-0.794c-0.805-0.104-1.609-0.219-2.414-0.355
	c-3.95-0.648-7.847-1.557-11.661-2.727c-0.585-0.178-1.181-0.366-1.766-0.564c-1.181-0.387-2.351-0.794-3.511-1.233
	c-1.139-0.428-2.278-0.878-3.396-1.358c-3.072-1.306-6.071-2.79-8.976-4.441c-0.355-0.199-0.711-0.397-1.055-0.606
	c-2.152-1.254-4.242-2.602-6.28-4.044c-0.982-0.69-1.964-1.411-2.915-2.152c-0.533-0.408-1.055-0.815-1.567-1.233
	c-1.442-1.16-2.832-2.372-4.19-3.615c-0.711-0.648-1.411-1.317-2.09-1.985c-0.188-0.188-0.387-0.376-0.564-0.564
	c-0.167-0.167-0.334-0.324-0.502-0.502c-0.658-0.669-1.306-1.348-1.944-2.038c-2.947-3.187-5.642-6.572-8.067-10.136
	c-0.345-0.502-0.69-1.014-1.014-1.526c-1.128-1.724-2.194-3.5-3.197-5.298c-0.188-0.324-0.366-0.648-0.533-0.972
	c-0.293-0.533-0.575-1.076-0.846-1.62c-0.282-0.543-0.554-1.087-0.825-1.63c-0.533-1.097-1.045-2.194-1.526-3.312
	c-0.24-0.564-0.481-1.128-0.711-1.682c-0.24-0.564-0.47-1.128-0.679-1.703c-0.439-1.128-0.857-2.278-1.243-3.427
	c-0.199-0.575-0.397-1.16-0.575-1.745c-0.345-1.087-0.669-2.173-0.961-3.281c-0.042-0.157-0.084-0.313-0.125-0.481
	c-0.146-0.502-0.272-1.003-0.397-1.515c-0.125-0.512-0.251-1.034-0.366-1.546c-0.021-0.084-0.031-0.157-0.052-0.24l-15.297,3.427
	c0.021,0.094,0.042,0.188,0.063,0.282c0.052,0.251,0.115,0.502,0.178,0.742c0.031,0.115,0.052,0.23,0.084,0.345
	c0.115,0.481,0.23,0.961,0.355,1.442c0.23,0.899,0.47,1.797,0.721,2.696c0.282,1.003,0.585,1.996,0.899,2.988
	c0.272,0.846,0.554,1.703,0.846,2.55c0.188,0.543,0.387,1.087,0.585,1.641c0.502,1.39,1.034,2.759,1.609,4.117
	c1.317,3.176,2.8,6.29,4.441,9.31c0.92,1.735,1.902,3.438,2.947,5.11c0.512,0.836,1.045,1.672,1.578,2.497
	c1.954,3.009,4.075,5.925,6.353,8.714h-1.442c-41.43,0-80.05-22.319-100.78-58.253l-0.293,0.167
	c-4.054-7.105-7.377-14.67-9.864-22.612l0.199-0.063c-3.657-11.431-5.517-23.374-5.517-35.495v-96.632
	c0-1.003,0.01-1.996,0.042-2.999c0.021-0.993,0.063-1.985,0.115-2.978c0.094-1.975,0.251-3.939,0.449-5.893
	c0.094-0.972,0.209-1.944,0.334-2.905c-0.01-0.01,0-0.021,0-0.021c0.094-0.763,0.199-1.526,0.313-2.278
	c0.042-0.313,0.084-0.627,0.136-0.93c0.136-0.857,0.282-1.703,0.428-2.55c0.157-0.878,0.324-1.755,0.502-2.623
	c0.031-0.219,0.084-0.428,0.136-0.637c0.157-0.794,0.334-1.578,0.512-2.372c0-0.021,0-0.031,0.01-0.052
	c0.313-1.379,0.669-2.759,1.045-4.127c0.366-1.348,0.752-2.696,1.17-4.023c0-0.01,0-0.021,0.01-0.042
	c2.508-8.056,5.862-15.747,9.979-22.956l0.293,0.167c20.731-35.934,59.35-58.253,100.78-58.253h0.825
	c-9.655,12.079-16.551,26.258-19.978,41.368l0.178,0.042c-0.063,0.24-0.125,0.491-0.178,0.742c-0.021,0.094-0.042,0.188-0.063,0.282
	l15.297,3.427c0.021-0.084,0.031-0.157,0.052-0.24c0.115-0.522,0.24-1.034,0.366-1.546c0.146-0.585,0.303-1.181,0.46-1.766
	c0.01-0.073,0.031-0.157,0.063-0.24c0.46-1.693,0.972-3.354,1.536-5.016c0.387-1.149,0.805-2.288,1.243-3.427
	c0.878-2.267,1.86-4.503,2.915-6.687c0.272-0.554,0.543-1.097,0.825-1.641c0.543-1.066,1.108-2.121,1.693-3.156
	c1.839-3.239,3.877-6.374,6.123-9.373c0.721-0.972,1.473-1.933,2.247-2.873c1.149-1.421,2.351-2.8,3.594-4.148
	c0.794-0.867,1.609-1.714,2.445-2.55l0.188-0.188c0.805-0.805,1.63-1.588,2.466-2.351c1.39-1.275,2.811-2.508,4.284-3.688
	c0.481-0.387,0.972-0.773,1.473-1.16c0.951-0.742,1.933-1.463,2.915-2.152c2.038-1.442,4.127-2.79,6.28-4.044
	c0.345-0.209,0.7-0.408,1.055-0.606c2.905-1.651,5.904-3.135,8.976-4.441c1.118-0.481,2.257-0.93,3.396-1.358
	c1.17-0.439,2.341-0.857,3.511-1.233c0.585-0.199,1.181-0.387,1.766-0.564c3.574-1.097,7.22-1.964,10.909-2.602
	c1.055-0.178,2.111-0.345,3.166-0.481c3.877-0.533,7.784-0.794,11.724-0.794c3.939,0,7.847,0.261,11.724,0.794
	c1.066,0.136,2.111,0.303,3.166,0.481c3.689,0.637,7.335,1.505,10.909,2.602c0.585,0.178,1.181,0.366,1.766,0.564
	c1.17,0.376,2.341,0.794,3.511,1.233c1.139,0.428,2.278,0.878,3.396,1.358c3.072,1.306,6.071,2.79,8.976,4.441
	c0.355,0.199,0.711,0.397,1.055,0.606c2.152,1.254,4.242,2.602,6.28,4.044c0.982,0.69,1.964,1.411,2.915,2.152
	c0.502,0.387,0.993,0.773,1.473,1.16c1.473,1.181,2.894,2.414,4.284,3.688c0.836,0.763,1.661,1.546,2.466,2.351l0.188,0.188
	c0.836,0.836,1.651,1.682,2.445,2.55c1.243,1.348,2.445,2.727,3.594,4.148c0.773,0.94,1.526,1.902,2.247,2.873
	c2.247,2.999,4.284,6.134,6.123,9.373c0.585,1.034,1.149,2.09,1.693,3.156c0.282,0.543,0.554,1.087,0.825,1.641
	c1.055,2.184,2.038,4.42,2.915,6.687c0.439,1.139,0.857,2.278,1.243,3.427c0.564,1.661,1.076,3.323,1.536,5.016
	c0.031,0.084,0.052,0.167,0.063,0.24c0.157,0.585,0.313,1.181,0.46,1.766c0.125,0.512,0.251,1.024,0.366,1.546
	c0.021,0.084,0.031,0.157,0.052,0.24l15.297-3.427c-0.021-0.094-0.042-0.188-0.063-0.282c-0.052-0.251-0.115-0.502-0.178-0.742
	l0.178-0.042c-3.427-15.109-10.324-29.288-19.978-41.368h0.825c41.43,0,80.05,22.319,100.78,58.253l0.293-0.167
	c4.117,7.21,7.471,14.9,9.979,22.956c0.01,0.021,0.01,0.031,0.01,0.042c0.418,1.327,0.805,2.675,1.17,4.023
	c0.376,1.369,0.731,2.748,1.045,4.127c0.01,0.021,0.01,0.031,0.01,0.052c0.178,0.794,0.355,1.578,0.512,2.372
	c0.052,0.209,0.105,0.418,0.136,0.637c0.178,0.867,0.345,1.745,0.502,2.623c0.146,0.846,0.293,1.693,0.428,2.55
	c0.052,0.303,0.094,0.616,0.136,0.93c0.115,0.752,0.219,1.515,0.313,2.278c0,0,0.01,0.01,0,0.021
	c0.125,0.961,0.24,1.933,0.334,2.905c0.199,1.954,0.355,3.918,0.449,5.893c0.052,0.993,0.094,1.985,0.115,2.978
	c0.031,1.003,0.042,1.996,0.042,2.999v96.632c0,12.121-1.86,24.064-5.517,35.495l0.199,0.063c-2.487,7.941-5.81,15.506-9.864,22.612
	l-0.293-0.167C417.802,439.788,379.183,462.107,337.753,462.107z"/>
<path style="fill:#91DC5A;" d="M272.259,69.225H256V53.552h17.356l13.97-26.122h-63.634l17.502,32.35l-9.059,37.48l-0.303,1.233
	c7.879-1.881,15.987-2.884,24.168-2.884c7.816,0,15.579,0.909,23.124,2.644l-0.293-1.233L272.259,69.225z"/>
<g>
	<path style="fill:#FFDA44;" d="M239.282,335.674v19.331h-16.718v-19.331h-66.069l4.869,11.013
		c16.572,37.428,53.718,61.607,94.636,61.607c3.95,0,7.941-0.23,11.86-0.679l6.949-0.794v-22.559h16.718v18.599l11.4-5.81
		c21.159-10.794,38.107-28.682,47.71-50.364l4.869-11.013L239.282,335.674L239.282,335.674z"/>
	<polygon style="fill:#FFDA44;" points="219.544,253.127 176.588,210.171 133.632,253.127 120.163,253.127 120.163,268.801 
		231.967,268.801 231.967,253.127 	"/>
	<polygon style="fill:#FFDA44;" points="378.368,253.127 335.412,210.171 292.456,253.127 278.988,253.127 278.988,268.801 
		391.837,268.801 391.837,253.127 	"/>
</g>
<path d="M107.124,135.686c-38.763,23.006-64.806,65.282-64.806,113.533v96.632c0,13.749,2.108,27.301,6.264,40.279l14.926-4.78
	c-3.66-11.43-5.517-23.373-5.517-35.498v-96.632c0-64.103,52.152-116.255,116.255-116.255h2.111
	c-10.379,12.501-17.771,27.34-21.323,43.219l15.295,3.422c4.269-19.082,15.066-36.419,30.403-48.818
	c15.559-12.577,35.186-19.505,55.267-19.505s39.708,6.928,55.267,19.506c15.337,12.399,26.135,29.736,30.403,48.817l15.296-3.422
	c-3.553-15.879-10.944-30.718-21.324-43.219h2.112c64.103,0,116.255,52.152,116.255,116.255v96.632
	c0,12.124-1.856,24.067-5.516,35.498l14.926,4.779c4.157-12.978,6.263-26.53,6.263-40.278v-96.632
	c0-48.249-26.041-90.525-64.801-113.53c31.134,6.87,58.734,26.412,75.297,54.382l13.485-7.986
	c-11.473-19.372-27.819-35.603-47.271-46.935c-20.053-11.683-42.987-17.858-66.321-17.858h-60.644
	c-7.031-5.444-14.723-9.931-22.852-13.383l-9.939-41.961l26.853-50.191H197.398l27.147,50.192l-10.263,42.446
	c-7.71,3.382-15.009,7.707-21.711,12.897h-60.643c-23.372,0-46.338,6.194-66.415,17.913c-19.476,11.368-35.827,27.644-47.288,47.068
	l13.499,7.964C48.283,162.172,75.922,142.566,107.124,135.686z M223.695,27.429h63.632l-13.975,26.122H256v15.673h16.253
	l6.874,29.025c-7.55-1.73-15.308-2.642-23.128-2.642c-8.179,0-16.289,0.999-24.166,2.888l9.361-38.713L223.695,27.429z"/>
<path d="M505.374,207.829l-14.884,4.914c3.872,11.728,5.836,24,5.836,36.476v96.632c0,55.678-39.348,102.332-91.695,113.636
	c19.383-11.406,35.891-27.725,47.473-47.799l-13.575-7.833c-20.729,35.931-59.344,58.251-100.775,58.251h-1.444
	c9.975-12.259,17.093-26.716,20.594-42.153l-15.286-3.465c-4.313,19.024-15.125,36.303-30.442,48.653
	c-15.543,12.53-35.138,19.431-55.176,19.431s-39.632-6.901-55.174-19.431c-15.317-12.35-26.129-29.628-30.442-48.653l-15.286,3.465
	c3.499,15.437,10.618,29.895,20.593,42.153h-1.444c-41.432,0-80.047-22.32-100.775-58.251l-13.576,7.832
	c11.581,20.075,28.09,36.394,47.473,47.8c-52.347-11.303-91.695-57.957-91.695-113.636v-96.632c0-12.475,1.963-24.747,5.835-36.475
	L6.625,207.83C2.229,221.146,0,235.071,0,249.219v96.632C0,418.597,59.183,477.78,131.929,477.78h59.627
	c18.228,14.485,41.079,22.465,64.444,22.465c23.364,0,46.216-7.98,64.444-22.465h59.628c72.746,0,131.929-59.183,131.929-131.929
	v-96.632C512,235.071,509.77,221.146,505.374,207.829z"/>
<path d="M391.837,253.127h-13.473l-42.952-42.952l-42.953,42.952h-13.472v15.673h112.849V253.127z M335.412,232.34l20.786,20.787
	h-41.572L335.412,232.34z"/>
<rect x="402.286" y="253.127" width="26.122" height="15.673"/>
<path d="M231.967,253.127h-12.428l-42.952-42.952l-42.952,42.952h-13.473v15.673h111.804V253.127z M176.588,232.34l20.787,20.787
	h-41.573L176.588,232.34z"/>
<rect x="83.592" y="253.127" width="26.122" height="15.673"/>
<path d="M302.922,397.051c21.168-10.792,38.113-28.68,47.712-50.369l4.872-11.009H239.282v19.331h-16.718v-19.33h-66.071
	l4.873,11.009c16.567,37.427,53.714,61.61,94.634,61.61c3.948,0,7.939-0.228,11.862-0.676l6.947-0.795v-22.56h16.718v18.6
	L302.922,397.051z M259.135,368.588v23.977c-31.708,1.111-61.168-14.938-77.598-41.217h25.353v19.33h48.065v-19.331h75.499
	c-6.064,9.677-13.978,18.111-23.254,24.788v-7.547L259.135,368.588L259.135,368.588z"/>
<g>
</g>
<g>
</g>
<g>
</g>
<g>
</g>
<g>
</g>
<g>
</g>
<g>
</g>
<g>
</g>
<g>
</g>
<g>
</g>
<g>
</g>
<g>
</g>
<g>
</g>
<g>
</g>
<g>
</g>
</svg>
